{"accessors":[{"bufferView":2,"componentType":5126,"count":2399,"max":[1,2,1],"min":[-1,0,-1],"type":"VEC3"},{"bufferView":2,"byteOffset":28788,"componentType":5126,"count":2399,"max":[1,1,1],"min":[-1,-1,-1],"type":"VEC3"},{"bufferView":1,"componentType":5126,"count":2399,"max":[1,1],"min":[0,0],"type":"VEC2"},{"bufferView":0,"componentType":5125,"count":13536,"type":"SCALAR"}],"asset":{"extras":{"author":"rawwerks (https://sketchfab.com/rawwerks)","license":"CC-BY-4.0 (http://creativecommons.org/licenses/by/4.0/)","source":"https://sketchfab.com/3d-models/sphere-gltf-example-cd602a89287b4cf1a704c13e15cf48f8","title":"sphere-gltf-example"},"generator":"Sketchfab-12.65.0","version":"2.0"},"bufferViews":[{"buffer":0,"byteLength":54144,"name":"floatBufferViews","target":34963},{"buffer":0,"byteLength":19192,"byteOffset":54144,"byteStride":8,"name":"floatBufferViews","target":34962},{"buffer":0,"byteLength":57576,"byteOffset":73336,"byteStride":12,"name":"floatBufferViews","target":34962}],"buffers":[{"byteLength":130912,"uri":"data:application/octet-stream;base64,"}],"extensionsUsed":["KHR_materials_transmission"],"materials":[{"extensions":{"KHR_materials_transmission":{"transmissionFactor":0}},"name":"GLASS","pbrMetallicRoughness":{"baseColorFactor":[0.99,0.99,0.99,1],"metallicFactor":0,"roughnessFactor":0}}],"meshes":[{"name":"Object_0","primitives":[{"attributes":{"NORMAL":1,"POSITION":0,"TEXCOORD_0":2},"indices":3,"material":0,"mode":4}]}],"nodes":[{"children":[1],"matrix":[1,0,0,0,0,2.220446049250313e-16,-1,0,0,1,2.220446049250313e-16,0,0,0,0,1],"name":"Sketchfab_model"},{"children":[2],"name":"root"},{"children":[3],"matrix":[1,0,0,0,0,2.220446049250313e-16,1,0,0,-1,2.220446049250313e-16,0,0,0,0,1],"name":"GLTF_SceneRootNode"},{"children":[4],"name":"Sphere_1"},{"mesh":0,"name":"Object_4"}],"scene":0,"scenes":[{"name":"Sketchfab_Scene","nodes":[0]}]}